<svg xmlns="http://www.w3.org/2000/svg" width="64" height="64" fill="none"><path fill="#000" d="M0 0h64v64H0z"/><path fill="#EEE" d="M12.002 12.001h9.824c5.321 0 9.634 4.331 9.634 9.652 0 5.406-4.4 9.806-9.806 9.806-5.32 0-9.652-4.313-9.652-9.633zm39.997 39.998h-9.824c-5.321 0-9.634-4.332-9.634-9.652 0-5.406 4.4-9.806 9.806-9.806 5.32 0 9.652 4.312 9.652 9.633zm-39.997-.001v-9.824c0-5.32 4.331-9.633 9.652-9.633 5.406 0 9.806 4.4 9.806 9.806 0 5.32-4.313 9.651-9.633 9.651zM52 12.001v9.825c0 5.32-4.332 9.633-9.653 9.633-5.405 0-9.806-4.4-9.806-9.806 0-5.32 4.313-9.652 9.634-9.652z"/></svg>